<svg width="20" height="20" viewBox="0 0 20 20" fill="none" xmlns="http://www.w3.org/2000/svg">
<path d="M16 7V10V7ZM16 10V13V10ZM16 10H19H16ZM16 10H13H16ZM11 5C11 6.06087 10.5786 7.07828 9.82843 7.82843C9.07828 8.57857 8.06087 9 7 9C5.93913 9 4.92172 8.57857 4.17157 7.82843C3.42143 7.07828 3 6.06087 3 5C3 3.93913 3.42143 2.92172 4.17157 2.17157C4.92172 1.42143 5.93913 1 7 1C8.06087 1 9.07828 1.42143 9.82843 2.17157C10.5786 2.92172 11 3.93913 11 5V5ZM1 18C1 16.4087 1.63214 14.8826 2.75736 13.7574C3.88258 12.6321 5.4087 12 7 12C8.5913 12 10.1174 12.6321 11.2426 13.7574C12.3679 14.8826 13 16.4087 13 18V19H1V18Z" stroke="white" stroke-width="2" stroke-linecap="round" stroke-linejoin="round"/>
</svg>
